<?xml version="1.0" encoding="UTF-8" standalone="no" ?>
<!DOCTYPE svg PUBLIC "-//W3C//DTD SVG 1.1//EN" "http://www.w3.org/Graphics/SVG/1.1/DTD/svg11.dtd">
<svg xmlns="http://www.w3.org/2000/svg" xmlns:xlink="http://www.w3.org/1999/xlink" version="1.1" width="1280" height="1024" viewBox="0 0 1280 1024" xml:space="preserve">
<desc>Created with Fabric.js 5.3.0</desc>
<defs>
</defs>
<g transform="matrix(1 0 0 1 640 512)" id="background-logo"  >
<rect style="stroke: none; stroke-width: 0; stroke-dasharray: none; stroke-linecap: butt; stroke-dashoffset: 0; stroke-linejoin: miter; stroke-miterlimit: 4; fill: rgb(255,255,255); fill-rule: nonzero; opacity: 1;"  paint-order="stroke"  x="-640" y="-512" rx="0" ry="0" width="1280" height="1024" />
</g>
<g transform="matrix(4.709569517940435 0 0 4.709569517940435 639.4166536904393 511.84444098411717)" id="logo-logo"  >
<g style=""  paint-order="stroke"   >
		<g transform="matrix(1.0409584010645323 0 0 1.0409584010645325 0 0)"  >
<g style=""  paint-order="stroke"   >
		<g transform="matrix(1 0 0 1 0 0)"  >
<path style="stroke: none; stroke-width: 1; stroke-dasharray: none; stroke-linecap: butt; stroke-dashoffset: 0; stroke-linejoin: miter; stroke-miterlimit: 4; fill: rgb(204,108,228); fill-rule: nonzero; opacity: 1;"  paint-order="stroke"  transform=" translate(-100, -98)" d="M 15.78 125.3 L 16.5 149.51999999999998 L 35.769999999999996 159.89 L 50 184.51 L 81.55 184.51 L 102.91 196 L 121.53999999999999 184.51 L 150 184.51 L 165.78 157.20999999999998 L 186.42000000000002 144.48 L 185.77 122.61999999999999 L 200 98 L 184.22 70.7 L 183.5 46.480000000000004 L 164.23 36.12 L 150 11.49 L 118.45 11.49 L 97.09 0 L 78.47 11.49 L 50 11.49 L 34.22 38.78 L 13.58 51.52 L 14.23 73.37 L 0 98 Z M 198.29 98 L 185.68 119.81 L 184.32 73.81 Z M 20.37 147.13 L 19.94 132.49 L 32 153.39 Z M 50.85 183 L 38.25 161.19 L 78.81 183 Z M 102.78 191.42 L 89.87 184.48 L 114 184.48 Z M 149.15 183 L 123.93 183 L 163.12 158.82 Z M 182.41 142.29 L 169.93 150 L 182 129.11 Z M 179.63 48.83999999999999 L 180.07 63.47999999999999 L 168 42.61 Z M 149.15 13 L 161.76 34.81 L 121.19 13 Z M 97.22 4.55 L 110.13 11.49 L 86 11.49 Z M 50.85 13 L 76.07 13 L 36.88 37.15 Z M 83.58 13 L 112.88 13 L 165.51 41.3 L 180.16 66.65 L 181.93 126.34 L 167.28 151.69 L 116.43 183 L 87.12 183 L 34.49 154.7 L 19.84 129.38 L 18.07 69.69 L 32.72 44.34 Z M 30.06 46 L 18 66.88 L 17.61 53.67999999999999 Z M 14.32 76.18 L 15.68 122.18 L 1.71 98 Z" stroke-linecap="round" />
</g>
</g>
</g>
</g>
</g>
<g transform="matrix(1.9211538461538462 0 0 1.9211538461538462 642.1427709981314 521.4145763343975)" id="tagline-3a0f327a-aafa-4e44-aa87-18cbd55f8865-logo"  >
<g style=""  paint-order="stroke"   >
		<g transform="matrix(1 0 0 1 0 0)" id="tagline-3a0f327a-aafa-4e44-aa87-18cbd55f8865-logo-path-0"  >
<path style="stroke: rgb(255,255,255); stroke-width: 0; stroke-dasharray: none; stroke-linecap: butt; stroke-dashoffset: 0; stroke-linejoin: miter; stroke-miterlimit: 4; fill: rgb(204,108,228); fill-rule: nonzero; opacity: 1;"  paint-order="stroke"  transform=" translate(-203.87500000000003, 36.85084801798354)" d="M 40 -44.75 L 33 -44.75 C 31.42 -44.75 30.36 -45.8 30.36 -47.39 L 30.36 -85.8 C 30.36 -87.38 31.42 -88.44 33 -88.44 L 40 -88.44 C 58.21 -88.44 62.3 -78.14 62.3 -66.79 C 62.3 -55.04 58.21 -44.75 40 -44.75 Z M 5.28 -2.64 L 5.28 0 L 36.96 0 L 36.96 -2.64 C 33 -2.64 30.36 -3.7 30.36 -7.92 L 30.36 -38.15 C 30.36 -39.73 31.42 -40.79 33 -40.79 L 52.4 -40.79 C 69.43 -40.79 81.31 -52.27 81.31 -66.92 C 81.31 -80.92 69.43 -92.4 52.4 -92.4 L 5.28 -92.4 L 5.28 -89.76 C 9.24 -89.76 11.88 -88.7 11.88 -84.48 L 11.88 -7.92 C 11.88 -3.7 9.24 -2.64 5.28 -2.64 Z M 122.1 -3.43 C 113.12 -3.43 104.68 -10.82 102.83 -26.4 C 102.7 -27.98 103.62 -29.04 105.2 -29.04 L 135.56 -29.04 C 144.94 -29.04 149.69 -34.32 149.69 -40.92 C 149.69 -53.99 134.11 -66.79 119.33 -66.79 C 101.38 -66.79 83.95 -55.04 83.95 -33 C 83.95 -10.96 102.83 0.79 120.78 0.79 C 130.02 0.79 139.92 -3.43 144.94 -10.03 L 141.9 -12.94 C 136.22 -6.86 129.23 -3.43 122.1 -3.43 Z M 123.82 -33.13 L 102.43 -33.13 L 102.43 -35.64 C 103.09 -54.12 109.69 -62.57 119.46 -62.57 C 129.36 -62.57 134.24 -50.82 134.9 -42.9 C 135.43 -36.43 130.15 -33.13 123.82 -33.13 Z M 198.4 -3.43 C 189.42 -3.43 180.97 -10.82 179.12 -26.4 C 178.99 -27.98 179.92 -29.04 181.5 -29.04 L 211.86 -29.04 C 221.23 -29.04 225.98 -34.32 225.98 -40.92 C 225.98 -53.99 210.41 -66.79 195.62 -66.79 C 177.67 -66.79 160.25 -55.04 160.25 -33 C 160.25 -10.96 179.12 0.79 197.08 0.79 C 206.32 0.79 216.22 -3.43 221.23 -10.03 L 218.2 -12.94 C 212.52 -6.86 205.52 -3.43 198.4 -3.43 Z M 200.11 -33.13 L 178.73 -33.13 L 178.73 -35.64 C 179.39 -54.12 185.99 -62.57 195.76 -62.57 C 205.66 -62.57 210.54 -50.82 211.2 -42.9 C 211.73 -36.43 206.45 -33.13 200.11 -33.13 Z M 273.77 -62.83 C 278.65 -62.83 281.95 -60.98 277.86 -58.21 C 276.14 -56.89 275.09 -55.18 275.09 -52.93 C 275.09 -49.24 277.99 -46.33 281.69 -46.33 C 285.25 -46.33 288.55 -49.5 288.16 -54.38 C 287.36 -61.91 282.35 -66.79 273.9 -66.79 C 266.11 -66.79 260.96 -62.7 257.66 -55.44 L 257.66 -64.68 C 257.66 -66.26 256.61 -67.06 255.02 -66.79 L 240.5 -63.62 L 232.72 -62.04 L 233.24 -59.4 C 237.2 -60.19 239.18 -59.66 239.18 -55.44 L 239.18 -7.92 C 239.18 -3.7 236.54 -2.64 232.58 -2.64 L 232.58 0 L 264.26 0 L 264.26 -2.64 C 260.3 -2.64 257.66 -3.7 257.66 -7.92 L 257.66 -29.04 C 257.66 -48.05 261.89 -62.83 273.77 -62.83 Z M 310.46 0.79 C 318.25 0.79 323.93 -5.02 326.3 -8.45 L 324.32 -10.03 C 322.61 -7.66 320.5 -6.6 319.31 -6.6 C 318.12 -6.6 317.06 -7.92 317.06 -9.37 L 317.06 -92.4 C 317.06 -93.98 316.01 -94.78 314.42 -94.51 L 299.9 -91.34 L 292.12 -89.76 L 292.64 -87.12 C 296.6 -87.91 298.58 -87.38 298.58 -83.16 L 298.58 -13.33 C 298.58 -3.96 303.34 0.79 310.46 0.79 Z M 340.56 -58.61 L 363.4 3.3 C 363.92 4.75 363.79 6.73 363 8.05 C 359.96 12.8 356.14 16.9 350.99 16.9 C 345.05 16.9 341.62 13.73 344.12 11.75 C 345.84 10.3 347.03 8.45 347.03 6.07 C 347.03 2.11 343.86 -1.06 339.9 -1.06 C 336.07 -1.06 332.51 2.24 332.9 7.66 C 333.83 14.12 341.48 20.86 350.99 20.86 C 361.94 20.86 367.88 7.66 371.45 0 L 393.1 -58.61 C 394.55 -62.57 398.51 -63.36 402.47 -63.36 L 402.47 -66 L 382.67 -66 L 382.67 -63.36 C 388.21 -63.36 390.59 -62.57 389.14 -58.61 L 375.01 -20.59 C 374.48 -19.01 373.69 -19.01 373.16 -20.59 L 359.04 -58.61 C 357.59 -62.57 359.96 -63.36 365.51 -63.36 L 365.51 -66 L 333.17 -66 L 333.17 -63.36 C 335.94 -63.36 339.11 -62.57 340.56 -58.61 Z" stroke-linecap="round" />
</g>
</g>
</g>
</svg>